<svg width="121" height="29" viewBox="0 0 121 29" fill="none" xmlns="http://www.w3.org/2000/svg">
<path d="M41.2 24H44.56V17.448H45.184C45.4 17.952 45.592 18.312 45.832 18.672L49.408 24H53.368L48.664 17.136C51.208 16.584 52.696 14.952 52.696 12.288C52.696 9 50.392 7.152 46.624 7.176L41.2 7.2V24ZM44.56 14.424V10.224H46.432C48.256 10.224 49.288 10.968 49.288 12.312C49.288 13.68 48.256 14.424 46.432 14.424H44.56ZM55.0668 19.368H57.3228L57.8748 10.152V7.2H54.5148V10.152L55.0668 19.368ZM53.9868 22.2C53.9868 23.352 54.8988 24.312 56.1468 24.312C57.3948 24.312 58.2828 23.352 58.2828 22.2C58.2828 21.072 57.3948 20.112 56.1468 20.112C54.8988 20.112 53.9868 21.072 53.9868 22.2ZM68.4147 24.312C71.3427 24.312 73.5027 23.184 74.7747 21.648L72.3267 19.56C71.3427 20.64 70.1187 21.192 68.4867 21.192C65.1747 21.192 63.1347 18.696 63.1347 15.624C63.1347 12.552 65.1747 10.008 68.4147 10.008C69.9267 10.008 71.1747 10.536 72.1827 11.592L74.5587 9.528C73.0467 7.728 71.1507 6.888 68.4147 6.888C63.2307 6.888 59.6547 10.8 59.6547 15.624C59.6547 20.424 63.4227 24.312 68.4147 24.312ZM76.1453 24H79.5053V16.992H86.4653V24H89.8253V7.2H86.4653V13.968H79.5053V7.2H76.1453V24ZM92.2234 24H102.111V20.976H95.5834V16.92H101.943V13.992H95.5834V10.224H102.063V7.2H92.2234V24ZM104.247 24H107.367V15.24C107.367 14.256 107.343 13.224 107.247 12.504C107.583 13.008 107.967 13.464 108.351 13.896L116.847 24H119.031V7.2H115.959V15.576C115.959 16.56 115.983 17.592 116.079 18.312C115.743 17.808 115.359 17.352 114.975 16.92L106.791 7.2H104.247V24Z" fill="#121212"/>
<path fill-rule="evenodd" clip-rule="evenodd" d="M14.1497 15.7262C13.7657 23.0669 7.59189 28.9146 0 29V1C7.59189 1.08547 13.7657 6.9331 14.1497 14.2738C14.5287 7.02987 20.5459 1.2399 28 1.0064V28.9937C20.5459 28.7602 14.5287 22.9702 14.1497 15.7262Z" fill="#FF6428"/>
</svg>
