<svg width="500" height="500" viewBox="0 0 500 500" fill="none" xmlns="http://www.w3.org/2000/svg">
<circle cx="250" cy="250" r="250" fill="#FB97D3"/>
<path d="M28.4988 250.241H468.499" stroke="white" stroke-width="3"/>
<path d="M302.757 201.129C299.769 189.975 309.975 179.769 321.128 182.757L396.415 202.93C407.569 205.919 411.304 219.861 403.139 228.026L348.026 283.139C339.861 291.304 325.919 287.569 322.93 276.415L302.757 201.129Z" fill="#BD00FF" fill-opacity="0.25"/>
<path d="M119.838 93.7303C117.846 86.2946 124.65 79.4905 132.086 81.4829L182.277 94.9315C189.712 96.9239 192.203 106.219 186.76 111.662L150.017 148.404C144.574 153.847 135.279 151.357 133.287 143.921L119.838 93.7303Z" fill="#BD00FF" fill-opacity="0.25"/>
<path d="M294.757 201.129C291.769 189.975 301.975 179.769 313.128 182.757L388.415 202.93C399.569 205.919 403.304 219.861 395.139 228.026L340.026 283.139C331.861 291.304 317.919 287.569 314.93 276.415L294.757 201.129Z" fill="#000AFF" fill-opacity="0.25"/>
<path d="M64.8382 396.086C62.8458 388.65 69.65 381.846 77.0857 383.838L127.277 397.287C134.712 399.279 137.203 408.574 131.76 414.017L95.0172 450.76C89.5739 456.203 80.2792 453.712 78.2868 446.277L64.8382 396.086Z" fill="#000AFF" fill-opacity="0.25"/>
<path d="M210.757 350.128C207.769 338.975 217.975 328.769 229.128 331.757L304.415 351.93C315.569 354.919 319.304 368.861 311.139 377.026L256.026 432.139C247.861 440.304 233.919 436.568 230.93 425.415L210.757 350.128Z" fill="#FF0505" fill-opacity="0.25"/>
<path d="M284.838 62.0857C282.846 54.65 289.65 47.8458 297.086 49.8382L347.277 63.2869C354.712 65.2793 357.203 74.5739 351.76 80.0172L315.017 116.76C309.574 122.203 300.279 119.712 298.287 112.277L284.838 62.0857Z" fill="#FF0505" fill-opacity="0.25"/>
<path d="M60.8382 401.086C58.8458 393.65 65.65 386.846 73.0857 388.838L123.277 402.287C130.712 404.279 133.203 413.574 127.76 419.017L91.0172 455.76C85.5739 461.203 76.2792 458.712 74.2868 451.277L60.8382 401.086Z" fill="#0CBB67" fill-opacity="0.25"/>
<path d="M289.838 62.0857C287.846 54.65 294.65 47.8458 302.086 49.8382L352.277 63.2869C359.712 65.2793 362.203 74.5739 356.76 80.0172L320.017 116.76C314.574 122.203 305.279 119.712 303.287 112.277L289.838 62.0857Z" fill="#0CBB67" fill-opacity="0.25"/>
<path d="M220.757 350.128C217.769 338.975 227.975 328.769 239.128 331.757L314.415 351.93C325.569 354.919 329.304 368.861 321.139 377.026L266.026 432.139C257.861 440.304 243.919 436.568 240.93 425.415L220.757 350.128Z" fill="#00FFFF" fill-opacity="0.25"/>
<path d="M128.838 89.0857C126.846 81.65 133.65 74.8458 141.086 76.8382L191.277 90.2869C198.712 92.2793 201.203 101.574 195.76 107.017L159.017 143.76C153.574 149.203 144.279 146.712 142.287 139.277L128.838 89.0857Z" fill="#00FFFF" fill-opacity="0.25"/>
<path d="M31.384 244.896C29.6773 244.896 28.3547 244.427 27.416 243.488C26.5627 242.464 26.136 241.099 26.136 239.392V159.136C26.136 157.344 26.6053 156.021 27.544 155.168C28.4827 154.229 29.8053 153.76 31.512 153.76H61.848C71.4907 153.76 78.9147 156.021 84.12 160.544C89.3253 165.067 91.928 171.509 91.928 179.872C91.928 185.163 90.7333 189.771 88.344 193.696C86.04 197.536 82.6267 200.48 78.104 202.528C73.5813 204.491 68.1627 205.472 61.848 205.472L63.128 203.808H65.688C69.016 203.808 71.9173 204.661 74.392 206.368C76.8667 208.075 79.128 210.805 81.176 214.56L93.464 237.472C94.1467 238.667 94.4453 239.861 94.36 241.056C94.36 242.165 93.976 243.104 93.208 243.872C92.44 244.555 91.3307 244.896 89.88 244.896C88.4293 244.896 87.2347 244.555 86.296 243.872C85.3573 243.189 84.5467 242.208 83.864 240.928L69.912 215.072C67.9493 211.403 65.688 208.971 63.128 207.776C60.568 206.496 57.1973 205.856 53.016 205.856H36.632V239.392C36.632 241.099 36.2053 242.464 35.352 243.488C34.4987 244.427 33.176 244.896 31.384 244.896ZM36.632 197.536H60.312C67.3093 197.536 72.6 196.085 76.184 193.184C79.768 190.197 81.56 185.76 81.56 179.872C81.56 174.155 79.768 169.845 76.184 166.944C72.6 163.957 67.3093 162.464 60.312 162.464H36.632V197.536ZM115.345 221.088C114.321 221.088 113.468 220.747 112.785 220.064C112.188 219.381 111.846 218.357 111.761 216.992L109.201 159.648C109.116 157.6 109.585 155.979 110.609 154.784C111.718 153.504 113.297 152.864 115.345 152.864C117.308 152.864 118.801 153.504 119.825 154.784C120.849 155.979 121.318 157.6 121.233 159.648L118.673 216.992C118.673 218.357 118.374 219.381 117.777 220.064C117.18 220.747 116.369 221.088 115.345 221.088ZM115.345 244.512C113.212 244.512 111.505 243.872 110.225 242.592C108.945 241.227 108.305 239.52 108.305 237.472C108.305 235.424 108.945 233.76 110.225 232.48C111.505 231.115 113.212 230.432 115.345 230.432C117.478 230.432 119.142 231.115 120.337 232.48C121.617 233.76 122.257 235.424 122.257 237.472C122.257 239.52 121.617 241.227 120.337 242.592C119.142 243.872 117.478 244.512 115.345 244.512ZM179.926 245.152C171.051 245.152 163.457 243.275 157.142 239.52C150.827 235.765 145.963 230.432 142.55 223.52C139.222 216.608 137.558 208.373 137.558 198.816C137.558 191.648 138.497 185.248 140.374 179.616C142.337 173.899 145.11 169.077 148.694 165.152C152.363 161.141 156.843 158.069 162.134 155.936C167.425 153.717 173.355 152.608 179.926 152.608C185.217 152.608 190.251 153.376 195.03 154.912C199.809 156.363 203.947 158.539 207.446 161.44C208.555 162.293 209.281 163.275 209.622 164.384C210.049 165.408 210.091 166.432 209.75 167.456C209.494 168.395 208.982 169.205 208.214 169.888C207.531 170.485 206.678 170.784 205.654 170.784C204.63 170.784 203.478 170.357 202.198 169.504C199.126 167.029 195.755 165.195 192.086 164C188.417 162.805 184.449 162.208 180.182 162.208C173.441 162.208 167.723 163.659 163.03 166.56C158.337 169.376 154.795 173.515 152.406 178.976C150.017 184.437 148.822 191.051 148.822 198.816C148.822 206.581 150.017 213.237 152.406 218.784C154.795 224.245 158.337 228.427 163.03 231.328C167.723 234.144 173.441 235.552 180.182 235.552C184.363 235.552 188.331 234.955 192.086 233.76C195.841 232.48 199.297 230.603 202.454 228.128C203.734 227.275 204.886 226.891 205.91 226.976C206.934 226.976 207.787 227.275 208.47 227.872C209.153 228.469 209.622 229.237 209.878 230.176C210.219 231.115 210.219 232.096 209.878 233.12C209.622 234.144 208.982 235.04 207.958 235.808C204.374 238.88 200.15 241.227 195.286 242.848C190.507 244.384 185.387 245.152 179.926 245.152ZM232.259 244.896C230.552 244.896 229.23 244.427 228.291 243.488C227.438 242.464 227.011 241.099 227.011 239.392V158.368C227.011 156.576 227.438 155.211 228.291 154.272C229.23 153.333 230.552 152.864 232.259 152.864C233.966 152.864 235.246 153.333 236.099 154.272C237.038 155.211 237.507 156.576 237.507 158.368V193.696H291.651V158.368C291.651 156.576 292.078 155.211 292.931 154.272C293.87 153.333 295.192 152.864 296.899 152.864C298.606 152.864 299.886 153.333 300.739 154.272C301.678 155.211 302.147 156.576 302.147 158.368V239.392C302.147 241.099 301.678 242.464 300.739 243.488C299.886 244.427 298.606 244.896 296.899 244.896C295.192 244.896 293.87 244.427 292.931 243.488C292.078 242.464 291.651 241.099 291.651 239.392V202.784H237.507V239.392C237.507 241.099 237.08 242.464 236.227 243.488C235.374 244.427 234.051 244.896 232.259 244.896ZM330.146 244C328.269 244 326.818 243.531 325.794 242.592C324.855 241.568 324.386 240.117 324.386 238.24V159.52C324.386 157.643 324.855 156.235 325.794 155.296C326.818 154.272 328.269 153.76 330.146 153.76H377.762C379.213 153.76 380.322 154.144 381.09 154.912C381.858 155.68 382.242 156.747 382.242 158.112C382.242 159.563 381.858 160.672 381.09 161.44C380.322 162.208 379.213 162.592 377.762 162.592H334.626V193.824H375.074C376.525 193.824 377.634 194.208 378.402 194.976C379.17 195.659 379.554 196.725 379.554 198.176C379.554 199.627 379.17 200.736 378.402 201.504C377.634 202.272 376.525 202.656 375.074 202.656H334.626V235.168H377.762C379.213 235.168 380.322 235.552 381.09 236.32C381.858 237.088 382.242 238.155 382.242 239.52C382.242 240.971 381.858 242.08 381.09 242.848C380.322 243.616 379.213 244 377.762 244H330.146ZM404.003 244.896C402.382 244.896 401.144 244.469 400.291 243.616C399.438 242.677 399.011 241.355 399.011 239.648V158.24C399.011 156.533 399.438 155.211 400.291 154.272C401.144 153.333 402.254 152.864 403.619 152.864C404.984 152.864 405.966 153.12 406.563 153.632C407.246 154.059 408.014 154.869 408.867 156.064L464.675 230.432H461.603V157.984C461.603 156.363 462.03 155.125 462.883 154.272C463.736 153.333 464.974 152.864 466.595 152.864C468.131 152.864 469.283 153.333 470.051 154.272C470.904 155.125 471.331 156.363 471.331 157.984V239.776C471.331 241.397 470.947 242.677 470.179 243.616C469.496 244.469 468.472 244.896 467.107 244.896C465.827 244.896 464.803 244.64 464.035 244.128C463.267 243.616 462.456 242.805 461.603 241.696L405.923 167.328H408.867V239.648C408.867 241.355 408.44 242.677 407.587 243.616C406.734 244.469 405.539 244.896 404.003 244.896Z" fill="white"/>
<path d="M31.384 256.104C29.6773 256.104 28.3547 256.573 27.416 257.512C26.5627 258.536 26.136 259.901 26.136 261.608V341.864C26.136 343.656 26.6053 344.979 27.544 345.832C28.4827 346.771 29.8053 347.24 31.512 347.24H61.848C71.4907 347.24 78.9147 344.979 84.12 340.456C89.3253 335.933 91.928 329.491 91.928 321.128C91.928 315.837 90.7333 311.229 88.344 307.304C86.04 303.464 82.6267 300.52 78.104 298.472C73.5813 296.509 68.1627 295.528 61.848 295.528L63.128 297.192H65.688C69.016 297.192 71.9173 296.339 74.392 294.632C76.8667 292.925 79.128 290.195 81.176 286.44L93.464 263.528C94.1467 262.333 94.4453 261.139 94.36 259.944C94.36 258.835 93.976 257.896 93.208 257.128C92.44 256.445 91.3307 256.104 89.88 256.104C88.4293 256.104 87.2347 256.445 86.296 257.128C85.3573 257.811 84.5467 258.792 83.864 260.072L69.912 285.928C67.9493 289.597 65.688 292.029 63.128 293.224C60.568 294.504 57.1973 295.144 53.016 295.144H36.632V261.608C36.632 259.901 36.2053 258.536 35.352 257.512C34.4987 256.573 33.176 256.104 31.384 256.104ZM36.632 303.464H60.312C67.3093 303.464 72.6 304.915 76.184 307.816C79.768 310.803 81.56 315.24 81.56 321.128C81.56 326.845 79.768 331.155 76.184 334.056C72.6 337.043 67.3093 338.536 60.312 338.536H36.632V303.464ZM115.345 279.912C114.321 279.912 113.468 280.253 112.785 280.936C112.188 281.619 111.846 282.643 111.761 284.008L109.201 341.352C109.116 343.4 109.585 345.021 110.609 346.216C111.718 347.496 113.297 348.136 115.345 348.136C117.308 348.136 118.801 347.496 119.825 346.216C120.849 345.021 121.318 343.4 121.233 341.352L118.673 284.008C118.673 282.643 118.374 281.619 117.777 280.936C117.18 280.253 116.369 279.912 115.345 279.912ZM115.345 256.488C113.212 256.488 111.505 257.128 110.225 258.408C108.945 259.773 108.305 261.48 108.305 263.528C108.305 265.576 108.945 267.24 110.225 268.52C111.505 269.885 113.212 270.568 115.345 270.568C117.478 270.568 119.142 269.885 120.337 268.52C121.617 267.24 122.257 265.576 122.257 263.528C122.257 261.48 121.617 259.773 120.337 258.408C119.142 257.128 117.478 256.488 115.345 256.488ZM179.926 255.848C171.051 255.848 163.457 257.725 157.142 261.48C150.827 265.235 145.963 270.568 142.55 277.48C139.222 284.392 137.558 292.627 137.558 302.184C137.558 309.352 138.497 315.752 140.374 321.384C142.337 327.101 145.11 331.923 148.694 335.848C152.363 339.859 156.843 342.931 162.134 345.064C167.425 347.283 173.355 348.392 179.926 348.392C185.217 348.392 190.251 347.624 195.03 346.088C199.809 344.637 203.947 342.461 207.446 339.56C208.555 338.707 209.281 337.725 209.622 336.616C210.049 335.592 210.091 334.568 209.75 333.544C209.494 332.605 208.982 331.795 208.214 331.112C207.531 330.515 206.678 330.216 205.654 330.216C204.63 330.216 203.478 330.643 202.198 331.496C199.126 333.971 195.755 335.805 192.086 337C188.417 338.195 184.449 338.792 180.182 338.792C173.441 338.792 167.723 337.341 163.03 334.44C158.337 331.624 154.795 327.485 152.406 322.024C150.017 316.563 148.822 309.949 148.822 302.184C148.822 294.419 150.017 287.763 152.406 282.216C154.795 276.755 158.337 272.573 163.03 269.672C167.723 266.856 173.441 265.448 180.182 265.448C184.363 265.448 188.331 266.045 192.086 267.24C195.841 268.52 199.297 270.397 202.454 272.872C203.734 273.725 204.886 274.109 205.91 274.024C206.934 274.024 207.787 273.725 208.47 273.128C209.153 272.531 209.622 271.763 209.878 270.824C210.219 269.885 210.219 268.904 209.878 267.88C209.622 266.856 208.982 265.96 207.958 265.192C204.374 262.12 200.15 259.773 195.286 258.152C190.507 256.616 185.387 255.848 179.926 255.848ZM232.259 256.104C230.552 256.104 229.23 256.573 228.291 257.512C227.438 258.536 227.011 259.901 227.011 261.608V342.632C227.011 344.424 227.438 345.789 228.291 346.728C229.23 347.667 230.552 348.136 232.259 348.136C233.966 348.136 235.246 347.667 236.099 346.728C237.038 345.789 237.507 344.424 237.507 342.632V307.304H291.651V342.632C291.651 344.424 292.078 345.789 292.931 346.728C293.87 347.667 295.192 348.136 296.899 348.136C298.606 348.136 299.886 347.667 300.739 346.728C301.678 345.789 302.147 344.424 302.147 342.632V261.608C302.147 259.901 301.678 258.536 300.739 257.512C299.886 256.573 298.606 256.104 296.899 256.104C295.192 256.104 293.87 256.573 292.931 257.512C292.078 258.536 291.651 259.901 291.651 261.608V298.216H237.507V261.608C237.507 259.901 237.08 258.536 236.227 257.512C235.374 256.573 234.051 256.104 232.259 256.104ZM330.146 257C328.269 257 326.818 257.469 325.794 258.408C324.855 259.432 324.386 260.883 324.386 262.76V341.48C324.386 343.357 324.855 344.765 325.794 345.704C326.818 346.728 328.269 347.24 330.146 347.24H377.762C379.213 347.24 380.322 346.856 381.09 346.088C381.858 345.32 382.242 344.253 382.242 342.888C382.242 341.437 381.858 340.328 381.09 339.56C380.322 338.792 379.213 338.408 377.762 338.408H334.626V307.176H375.074C376.525 307.176 377.634 306.792 378.402 306.024C379.17 305.341 379.554 304.275 379.554 302.824C379.554 301.373 379.17 300.264 378.402 299.496C377.634 298.728 376.525 298.344 375.074 298.344H334.626V265.832H377.762C379.213 265.832 380.322 265.448 381.09 264.68C381.858 263.912 382.242 262.845 382.242 261.48C382.242 260.029 381.858 258.92 381.09 258.152C380.322 257.384 379.213 257 377.762 257H330.146ZM404.003 256.104C402.382 256.104 401.144 256.531 400.291 257.384C399.438 258.323 399.011 259.645 399.011 261.352V342.76C399.011 344.467 399.438 345.789 400.291 346.728C401.144 347.667 402.254 348.136 403.619 348.136C404.984 348.136 405.966 347.88 406.563 347.368C407.246 346.941 408.014 346.131 408.867 344.936L464.675 270.568H461.603V343.016C461.603 344.637 462.03 345.875 462.883 346.728C463.736 347.667 464.974 348.136 466.595 348.136C468.131 348.136 469.283 347.667 470.051 346.728C470.904 345.875 471.331 344.637 471.331 343.016V261.224C471.331 259.603 470.947 258.323 470.179 257.384C469.496 256.531 468.472 256.104 467.107 256.104C465.827 256.104 464.803 256.36 464.035 256.872C463.267 257.384 462.456 258.195 461.603 259.304L405.923 333.672H408.867V261.352C408.867 259.645 408.44 258.323 407.587 257.384C406.734 256.531 405.539 256.104 404.003 256.104Z" fill="white" fill-opacity="0.5"/>
<circle cx="115.5" cy="237.5" r="7.5" fill="url(#paint0_linear_304_45)"/>
<circle cx="115.5" cy="263.5" r="7.5" fill="url(#paint1_linear_304_45)" fill-opacity="0.5"/>
<defs>
<linearGradient id="paint0_linear_304_45" x1="108.9" y1="229.25" x2="120.825" y2="243.2" gradientUnits="userSpaceOnUse">
<stop stop-color="#F130E4"/>
<stop offset="1" stop-color="#80FEFB"/>
</linearGradient>
<linearGradient id="paint1_linear_304_45" x1="108.9" y1="255.25" x2="120.825" y2="269.2" gradientUnits="userSpaceOnUse">
<stop stop-color="#F130E4" stop-opacity="0.5"/>
<stop offset="1" stop-color="#80FEFB"/>
</linearGradient>
</defs>
</svg>
